<?xml version="1.0" encoding="UTF-8"?>
<svg version="1.1" xmlns="http://www.w3.org/2000/svg" width="101" height="92">
<path d="M0 0 C33.33 0 66.66 0 101 0 C101 30.36 101 60.72 101 92 C67.67 92 34.34 92 0 92 C0 61.64 0 31.28 0 0 Z " fill="#8B96A8" transform="translate(0,0)"/>
<path d="M0 0 C4.62 0 9.24 0 14 0 C14 0.66 14 1.32 14 2 C13.34 2 12.68 2 12 2 C12 2.66 12 3.32 12 4 C13.32 4 14.64 4 16 4 C16 3.34 16 2.68 16 2 C18.25 2.125 18.25 2.125 21 3 C23.1875 6 23.1875 6 25 9 C25.99 9.495 25.99 9.495 27 10 C27.625 13.0625 27.625 13.0625 28 16 C28.66 16 29.32 16 30 16 C30.98043964 18.94131891 31.11621202 20.82501665 31.09765625 23.88671875 C31.09282227 25.2934082 31.09282227 25.2934082 31.08789062 26.72851562 C31.07532227 28.19321289 31.07532227 28.19321289 31.0625 29.6875 C31.05798828 30.67556641 31.05347656 31.66363281 31.04882812 32.68164062 C31.03704303 35.12115474 31.02059011 37.56054689 31 40 C30.34 40 29.68 40 29 40 C29.00902344 40.60585938 29.01804687 41.21171875 29.02734375 41.8359375 C28.71818917 50.57291468 24.8579601 56.2463091 18.6875 62.25 C17.3571875 63.11625 17.3571875 63.11625 16 64 C15.29230469 64.49242188 14.58460937 64.98484375 13.85546875 65.4921875 C5.83120018 70.77430445 -2.44009711 72.62347193 -12 72 C-12.33 71.67 -12.66 71.34 -13 71 C-15.18019479 70.60333773 -17.3696463 70.25684763 -19.5625 69.9375 C-21.35880859 69.67259766 -21.35880859 69.67259766 -23.19140625 69.40234375 C-24.11824219 69.26957031 -25.04507813 69.13679688 -26 69 C-26 68.34 -26 67.68 -26 67 C-26.763125 67.0825 -27.52625 67.165 -28.3125 67.25 C-31 67 -31 67 -32.8125 65.125 C-34 63 -34 63 -34 61 C-35.32 61 -36.64 61 -38 61 C-39.4375 58.875 -39.4375 58.875 -41 56 C-41.87587362 54.92098702 -42.7725208 53.85855768 -43.6875 52.8125 C-46 50 -46 50 -46 48 C-46.66 48 -47.32 48 -48 48 C-49.45184478 43.46298506 -50.23509196 39.81938524 -50 35 C-49.34 35 -48.68 35 -48 35 C-47.855625 34.236875 -47.71125 33.47375 -47.5625 32.6875 C-47 30 -47 30 -46 27 C-45.34 27 -44.68 27 -44 27 C-43.67 29.31 -43.34 31.62 -43 34 C-42.34 34 -41.68 34 -41 34 C-41.12375 32.88625 -41.12375 32.88625 -41.25 31.75 C-41 29 -41 29 -39.3125 26.625 C-37 25 -37 25 -34.25 25.25 C-33.5075 25.4975 -32.765 25.745 -32 26 C-31.938125 26.61875 -31.87625 27.2375 -31.8125 27.875 C-31.18259554 30.27117929 -31.18259554 30.27117929 -28.5 31.125 C-27.2625 31.558125 -27.2625 31.558125 -26 32 C-25.67 32.66 -25.34 33.32 -25 34 C-24.01 34 -23.02 34 -22 34 C-22.33 31.36 -22.66 28.72 -23 26 C-20.03 25.34 -17.06 24.68 -14 24 C-13.23826608 19.6835078 -12.83936396 16.25566547 -14 12 C-12.35 12 -10.7 12 -9 12 C-8.505 13.98 -8.505 13.98 -8 16 C-7.34 16 -6.68 16 -6 16 C-6.1546875 14.8553125 -6.1546875 14.8553125 -6.3125 13.6875 C-6.209375 12.800625 -6.10625 11.91375 -6 11 C-3.625 9.25 -3.625 9.25 -1 8 C-0.34 7.67 0.32 7.34 1 7 C1.65213292 4.97536745 1.65213292 4.97536745 2 3 C1.01 3 0.02 3 -1 3 C-0.67 2.01 -0.34 1.02 0 0 Z " fill="#FBFCF9" transform="translate(61,15)"/>
<path d="M0 0 C33.33 0 66.66 0 101 0 C101 7.26 101 14.52 101 22 C92 24 92 24 88 23 C86.82007965 21.71075137 85.64761156 20.41181913 84.55249023 19.04980469 C77.90990487 10.82719292 69.36737901 4.28648014 58.66894531 2.64160156 C47.18966563 1.69480829 36.8681061 2.95830239 27 9 C26.34 9 25.68 9 25 9 C25 9.66 25 10.32 25 11 C23.64453125 12.19140625 23.64453125 12.19140625 21.8125 13.5625 C15.13047281 19.12410647 12.37149607 26.84436717 10 35 C9.34 35 8.68 35 8 35 C8.11503269 37.5216376 8.24174777 40.0418119 8.375 42.5625 C8.4059375 43.26697266 8.436875 43.97144531 8.46875 44.69726562 C8.72826719 49.39020143 9.58235733 53.48931876 11 58 C11.39174154 59.64192903 11.76957833 61.28732795 12.125 62.9375 C12.29257813 63.70964844 12.46015625 64.48179688 12.6328125 65.27734375 C12.75398437 65.84582031 12.87515625 66.41429688 13 67 C13.66 67 14.32 67 15 67 C16.2615356 68.49844369 17.45941543 70.05076426 18.625 71.625 C25.01887209 79.75533735 30.9181597 83.644816 41 86 C41 86.66 41 87.32 41 88 C44.63 88 48.26 88 52 88 C52 89.32 52 90.64 52 92 C34.84 92 17.68 92 0 92 C0 61.64 0 31.28 0 0 Z " fill="#020302" transform="translate(0,0)"/>
<path d="M0 0 C4.62 0 9.24 0 14 0 C14 0.66 14 1.32 14 2 C13.34 2 12.68 2 12 2 C12 2.66 12 3.32 12 4 C13.32 4 14.64 4 16 4 C16 3.34 16 2.68 16 2 C18.25 2.125 18.25 2.125 21 3 C23.1875 6 23.1875 6 25 9 C25.66 9.33 26.32 9.66 27 10 C27.625 13.0625 27.625 13.0625 28 16 C28.66 16 29.32 16 30 16 C30.98043964 18.94131891 31.11621202 20.82501665 31.09765625 23.88671875 C31.09443359 24.82451172 31.09121094 25.76230469 31.08789062 26.72851562 C31.07532227 28.19321289 31.07532227 28.19321289 31.0625 29.6875 C31.05798828 30.67556641 31.05347656 31.66363281 31.04882812 32.68164062 C31.03704303 35.12115474 31.02059011 37.56054689 31 40 C30.34 40 29.68 40 29 40 C29.00902344 40.60585938 29.01804688 41.21171875 29.02734375 41.8359375 C28.71146562 50.76292801 24.68218428 56.56887373 18.25 62.5625 C16 64 16 64 13 65 C13.33 63.02 13.66 61.04 14 59 C13.34 59 12.68 59 12 59 C11.34 57.68 10.68 56.36 10 55 C9.67 55.33 9.34 55.66 9 56 C9.3403125 56.86625 9.3403125 56.86625 9.6875 57.75 C10 60 10 60 8.625 62.8125 C6 65 6 65 3.97265625 65.12890625 C1.61459536 64.86689948 -0.67374374 64.46447063 -3 64 C-4.35309789 63.80493662 -5.70719085 63.61655507 -7.0625 63.4375 C-8.031875 63.293125 -9.00125 63.14875 -10 63 C-10 63.66 -10 64.32 -10 65 C-11.98 65 -13.96 65 -16 65 C-16.33 62.03 -16.66 59.06 -17 56 C-15.948125 55.566875 -14.89625 55.13375 -13.8125 54.6875 C-11.43254079 53.68667208 -9.54535575 52.69690383 -7.375 51.25 C-5 50 -5 50 -2.25 50.1875 C0 51 0 51 1 53 C1.33 52.01 1.66 51.02 2 50 C2.66 50 3.32 50 4 50 C3.67 49.236875 3.34 48.47375 3 47.6875 C2 45 2 45 2 42 C3.98 41.01 5.96 40.02 8 39 C6.87980469 38.97421875 5.75960937 38.9484375 4.60546875 38.921875 C3.13277354 38.86559365 1.6601188 38.80824632 0.1875 38.75 C-0.55048828 38.73582031 -1.28847656 38.72164062 -2.04882812 38.70703125 C-7.50244688 38.46026117 -7.50244688 38.46026117 -9.98046875 36.16796875 C-11.52835533 32.8764858 -11.50338191 30.58659611 -11 27 C-8.37019052 23.63147999 -6.84351946 22.17630141 -2.6171875 21.29296875 C-1.38226563 21.25816406 -0.14734375 21.22335938 1.125 21.1875 C2.43984375 21.14238281 3.7546875 21.09726562 5.109375 21.05078125 C7.03523438 21.02564453 7.03523438 21.02564453 9 21 C10.11890625 20.97292969 11.2378125 20.94585937 12.390625 20.91796875 C17.65183723 20.84221831 17.65183723 20.84221831 20 21 C21 22 21 22 21.125 24.9375 C21 28 21 28 20 30 C22.31 29.67 24.62 29.34 27 29 C26.85795259 27.41632253 26.71119847 25.83306682 26.5625 24.25 C26.48128906 23.36828125 26.40007812 22.4865625 26.31640625 21.578125 C25.88304315 17.01487466 25.88304315 17.01487466 23.37109375 13.3671875 C22.73300781 12.87476563 22.09492187 12.38234375 21.4375 11.875 C19.49609375 10.3671875 19.49609375 10.3671875 18 9 C18 8.34 18 7.68 18 7 C15.69 6.67 13.38 6.34 11 6 C10.67 4.68 10.34 3.36 10 2 C8.1128125 1.9690625 8.1128125 1.9690625 6.1875 1.9375 C5.47980469 1.92589844 4.77210937 1.91429688 4.04296875 1.90234375 C1.79694539 1.91736783 1.79694539 1.91736783 -1 3 C-0.67 2.01 -0.34 1.02 0 0 Z " fill="#CAE0B5" transform="translate(61,15)"/>
<path d="M0 0 C0 22.11 0 44.22 0 67 C-15.18 67 -30.36 67 -46 67 C-46 65.68 -46 64.36 -46 63 C-44.91460937 62.61328125 -43.82921875 62.2265625 -42.7109375 61.828125 C-41.26547287 61.3025015 -39.82016882 60.77643628 -38.375 60.25 C-37.66214844 59.99734375 -36.94929688 59.7446875 -36.21484375 59.484375 C-31.64420952 57.80707803 -27.9986657 55.76184118 -24 53 C-23.34 53 -22.68 53 -22 53 C-21.67 52.01 -21.34 51.02 -21 50 C-20.2575 49.29875 -19.515 48.5975 -18.75 47.875 C-14.46935009 43.3997751 -11.27477816 38.11062138 -10 32 C-9.34 32 -8.68 32 -8 32 C-7.94555999 28.99975053 -7.9061164 26.00050961 -7.875 23 C-7.85824219 22.16082031 -7.84148437 21.32164063 -7.82421875 20.45703125 C-7.78136144 14.92843875 -8.4551386 10.30974585 -10 5 C-10.33855437 3.6679828 -10.67324347 2.33496032 -11 1 C-9 0 -9 0 0 0 Z " fill="#010201" transform="translate(101,25)"/>
<path d="M0 0 C2.97 0.33 5.94 0.66 9 1 C9.495 2.98 9.495 2.98 10 5 C12.31 5.33 14.62 5.66 17 6 C17 6.66 17 7.32 17 8 C17.639375 8.268125 18.27875 8.53625 18.9375 8.8125 C21 10 21 10 22 13 C22.99 13.33 23.98 13.66 25 14 C26.66626585 18.31268809 27.43140502 23.39834641 27 28 C26 29 26 29 22.4375 29.0625 C21.303125 29.041875 20.16875 29.02125 19 29 C19 26.36 19 23.72 19 21 C4.30191467 20.4402629 4.30191467 20.4402629 -10 23 C-10.91692961 25.75078884 -11.10886083 27.35948913 -11.0625 30.1875 C-11.041875 31.445625 -11.02125 32.70375 -11 34 C-11.66 34 -12.32 34 -13 34 C-13 32.35 -13 30.7 -13 29 C-13.7425 29.66 -14.485 30.32 -15.25 31 C-18 33 -18 33 -22 33 C-23.25664978 30.09399739 -24 28.20395416 -24 25 C-21.03 24.34 -18.06 23.68 -15 23 C-14.23826608 18.6835078 -13.83936396 15.25566547 -15 11 C-13.35 11 -11.7 11 -10 11 C-9.67 12.32 -9.34 13.64 -9 15 C-8.34 15 -7.68 15 -7 15 C-7.103125 14.236875 -7.20625 13.47375 -7.3125 12.6875 C-7.209375 11.800625 -7.10625 10.91375 -7 10 C-4.625 8.25 -4.625 8.25 -2 7 C-1.34 6.67 -0.68 6.34 0 6 C0 4.02 0 2.04 0 0 Z " fill="#EFF1F2" transform="translate(62,16)"/>
<path d="M0 0 C2.25 1.046875 2.25 1.046875 3.5625 3.15625 C3.9028125 4.09210937 3.9028125 4.09210937 4.25 5.046875 C3.280625 5.170625 2.31125 5.294375 1.3125 5.421875 C0.301875 5.628125 -0.70875 5.834375 -1.75 6.046875 C-2.08 6.706875 -2.41 7.366875 -2.75 8.046875 C-1.76 8.046875 -0.77 8.046875 0.25 8.046875 C0.125 10.359375 0.125 10.359375 -0.75 13.046875 C-2.75 14.046875 -4.75 15.046875 -6.75 16.046875 C-7.71906827 18.63101926 -7.71906827 18.63101926 -7.75 21.046875 C-8.41 21.046875 -9.07 21.046875 -9.75 21.046875 C-10.08 20.056875 -10.41 19.066875 -10.75 18.046875 C-12.4 17.716875 -14.05 17.386875 -15.75 17.046875 C-15.399375 17.76875 -15.04875 18.490625 -14.6875 19.234375 C-13.62212144 22.43051069 -13.6687472 23.8862899 -14.75 27.046875 C-15.8125 28.859375 -15.8125 28.859375 -17.75 30.046875 C-20.46847813 30.29400938 -23.0091631 30.18167026 -25.75 30.046875 C-25.75 29.716875 -25.75 29.386875 -25.75 29.046875 C-28.39 28.716875 -31.03 28.386875 -33.75 28.046875 C-33.29518943 22.68011024 -32.65151917 19.62234754 -29.75 15.046875 C-29.29006437 13.59546135 -28.85479674 12.1361174 -28.4375 10.671875 C-26.92462594 5.85964793 -24.41728246 2.47920621 -20.75 -0.953125 C-14.56844819 -4.0439009 -6.31905119 -1.6156665 0 0 Z " fill="#6789B2" transform="translate(62.75,9.953125)"/>
<path d="M0 0 C0.7425 0.2475 1.485 0.495 2.25 0.75 C2.311875 1.36875 2.37375 1.9875 2.4375 2.625 C3.078919 5.02761141 3.078919 5.02761141 5.8125 6 C6.616875 6.2475 7.42125 6.495 8.25 6.75 C5.25 8.75 5.25 8.75 3.25 8.75 C3.25 10.73 3.25 12.71 3.25 14.75 C2.59 14.75 1.93 14.75 1.25 14.75 C1.34539063 15.43964844 1.44078125 16.12929688 1.5390625 16.83984375 C2.30973195 23.3726115 2.01588339 28.41359489 0.25 34.75 C0.91 34.75 1.57 34.75 2.25 34.75 C2.25 35.41 2.25 36.07 2.25 36.75 C3.075 37.018125 3.9 37.28625 4.75 37.5625 C8.61915561 38.87524922 12.42994294 40.30101284 16.25 41.75 C16.25 42.41 16.25 43.07 16.25 43.75 C19.43848562 43.66831339 22.62516987 43.55554926 25.8125 43.4375 C27.15538086 43.40366211 27.15538086 43.40366211 28.52539062 43.36914062 C32.75783611 43.19860253 36.28613926 42.95839541 40.15234375 41.14453125 C43.25 39.75 43.25 39.75 45.6875 40.0625 C46.203125 40.289375 46.71875 40.51625 47.25 40.75 C39.13197635 45.92643391 31.72856811 46.92122575 22.25 46.75 C21.92 46.42 21.59 46.09 21.25 45.75 C19.06980521 45.35333773 16.8803537 45.00684763 14.6875 44.6875 C13.48996094 44.51089844 12.29242188 44.33429688 11.05859375 44.15234375 C10.13175781 44.01957031 9.20492187 43.88679688 8.25 43.75 C8.25 43.09 8.25 42.43 8.25 41.75 C7.486875 41.8325 6.72375 41.915 5.9375 42 C3.25 41.75 3.25 41.75 1.4375 39.875 C0.25 37.75 0.25 37.75 0.25 35.75 C-1.07 35.75 -2.39 35.75 -3.75 35.75 C-5.1875 33.625 -5.1875 33.625 -6.75 30.75 C-7.62587362 29.67098702 -8.5225208 28.60855768 -9.4375 27.5625 C-11.75 24.75 -11.75 24.75 -11.75 22.75 C-12.41 22.75 -13.07 22.75 -13.75 22.75 C-15.20184478 18.21298506 -15.98509196 14.56938524 -15.75 9.75 C-15.09 9.75 -14.43 9.75 -13.75 9.75 C-13.5334375 8.6053125 -13.5334375 8.6053125 -13.3125 7.4375 C-12.75 4.75 -12.75 4.75 -11.75 1.75 C-11.09 1.75 -10.43 1.75 -9.75 1.75 C-9.42 4.06 -9.09 6.37 -8.75 8.75 C-8.09 8.75 -7.43 8.75 -6.75 8.75 C-6.87375 7.63625 -6.87375 7.63625 -7 6.5 C-6.75 3.75 -6.75 3.75 -5.0625 1.375 C-2.75 -0.25 -2.75 -0.25 0 0 Z " fill="#C4DCBD" transform="translate(26.75,40.25)"/>
<path d="M0 0 C0 20.79 0 41.58 0 63 C-3.04599381 59.95400619 -4.08648415 56.16199927 -5.625 52.1875 C-5.94984375 51.37990234 -6.2746875 50.57230469 -6.609375 49.74023438 C-10.15078879 40.65606162 -10.15078879 40.65606162 -8.125 35.98046875 C-7.08333333 34.3203125 -6.04166667 32.66015625 -5 31 C-5.99 31.66 -6.98 32.32 -8 33 C-7.98952637 32.43603516 -7.97905273 31.87207031 -7.96826172 31.29101562 C-7.92625522 28.69405719 -7.90053398 26.09717061 -7.875 23.5 C-7.85824219 22.613125 -7.84148437 21.72625 -7.82421875 20.8125 C-7.78263589 15.15723159 -8.40720217 10.42731111 -10 5 C-10.33883355 3.66805379 -10.67358265 2.3350433 -11 1 C-9 0 -9 0 0 0 Z " fill="#020202" transform="translate(101,25)"/>
<path d="M0 0 C1.39456452 0.00667256 2.78911118 0.01863093 4.18359375 0.03515625 C4.89451172 0.03966797 5.60542969 0.04417969 6.33789062 0.04882812 C8.09899388 0.06064761 9.86005411 0.07858362 11.62109375 0.09765625 C11.62109375 0.42765625 11.62109375 0.75765625 11.62109375 1.09765625 C10.95722656 1.1234375 10.29335938 1.14921875 9.609375 1.17578125 C4.11359473 1.52879487 0.46610236 1.80029369 -3.37890625 6.09765625 C-6.04950829 9.92188571 -7.53553907 13.51937726 -8.37890625 18.09765625 C-8.87390625 18.88140625 -9.36890625 19.66515625 -9.87890625 20.47265625 C-11.70728301 23.67231559 -12.02220505 26.45930405 -12.37890625 30.09765625 C-9.73890625 30.42765625 -7.09890625 30.75765625 -4.37890625 31.09765625 C-4.37890625 31.42765625 -4.37890625 31.75765625 -4.37890625 32.09765625 C-2.39890625 32.42765625 -0.41890625 32.75765625 1.62109375 33.09765625 C1.62109375 33.42765625 1.62109375 33.75765625 1.62109375 34.09765625 C-0.35890625 34.09765625 -2.33890625 34.09765625 -4.37890625 34.09765625 C-4.02828125 34.65453125 -3.67765625 35.21140625 -3.31640625 35.78515625 C-2.16044632 38.63652408 -2.56923187 40.18282847 -3.37890625 43.09765625 C-4.69890625 42.76765625 -6.01890625 42.43765625 -7.37890625 42.09765625 C-7.37890625 41.43765625 -7.37890625 40.77765625 -7.37890625 40.09765625 C-8.16265625 39.85015625 -8.94640625 39.60265625 -9.75390625 39.34765625 C-12.81530439 37.88984761 -12.96597144 37.01772152 -14.37890625 34.09765625 C-16.42891496 33.29236736 -16.42891496 33.29236736 -18.37890625 33.09765625 C-18.78109375 34.05671875 -18.78109375 34.05671875 -19.19140625 35.03515625 C-20.37890625 37.09765625 -20.37890625 37.09765625 -23.37890625 38.09765625 C-25.40917428 32.00685215 -23.98215125 25.78024866 -21.37890625 20.03515625 C-18.3442453 14.42456216 -14.03607403 10.37516361 -9.37890625 6.09765625 C-8.37299275 5.10360493 -7.3716654 4.10484504 -6.37890625 3.09765625 C-3.37890625 0.09765625 -3.37890625 0.09765625 0 0 Z " fill="#7C97B4" transform="translate(42.37890625,6.90234375)"/>
<path d="M0 0 C2.52628702 -0.01310655 5.04844446 -0.00038481 7.57421875 0.046875 C7.57421875 0.376875 7.57421875 0.706875 7.57421875 1.046875 C3.11921875 1.541875 3.11921875 1.541875 -1.42578125 2.046875 C0.79782555 3.3450174 0.79782555 3.3450174 4.57421875 3.046875 C4.57421875 4.366875 4.57421875 5.686875 4.57421875 7.046875 C2.92421875 7.046875 1.27421875 7.046875 -0.42578125 7.046875 C-0.38453125 7.975 -0.34328125 8.903125 -0.30078125 9.859375 C-0.42578125 13.046875 -0.42578125 13.046875 -2.42578125 16.046875 C-1.43578125 16.046875 -0.44578125 16.046875 0.57421875 16.046875 C0.57421875 16.706875 0.57421875 17.366875 0.57421875 18.046875 C-2.86451941 17.99507736 -6.30073033 17.90002395 -9.73828125 17.796875 C-10.71474609 17.78269531 -11.69121094 17.76851562 -12.69726562 17.75390625 C-13.63505859 17.72167969 -14.57285156 17.68945312 -15.5390625 17.65625 C-16.40313721 17.63530273 -17.26721191 17.61435547 -18.1574707 17.59277344 C-20.42578125 17.046875 -20.42578125 17.046875 -22.19995117 15.22363281 C-24.03907374 11.95782584 -23.94233068 9.72728967 -23.42578125 6.046875 C-20.79597177 2.67835499 -19.26930071 1.22317641 -15.04296875 0.33984375 C-13.80804688 0.30503906 -12.573125 0.27023438 -11.30078125 0.234375 C-9.33044922 0.16476563 -9.33044922 0.16476563 -7.3203125 0.09375 C-4.88018498 0.06438036 -2.44007585 0.03338758 0 0 Z " fill="#D1DDD4" transform="translate(73.42578125,35.953125)"/>
<path d="M0 0 C5.61 0 11.22 0 17 0 C16.21625 1.505625 15.4325 3.01125 14.625 4.5625 C12.5583005 8.67833499 11.06895948 12.5298058 10 17 C9.34 17 8.68 17 8 17 C8.33 23.93 8.66 30.86 9 38 C2.06660772 35.22664309 2.06660772 35.22664309 0 33 C-0.35669893 30.35294872 -0.46776797 28.12764324 -0.390625 25.48828125 C-0.38496521 24.76005661 -0.37930542 24.03183197 -0.37347412 23.28153992 C-0.35110029 20.95785502 -0.30090669 18.63571793 -0.25 16.3125 C-0.22993609 14.73635041 -0.21168512 13.16017663 -0.1953125 11.58398438 C-0.15463422 7.72158176 -0.07635956 3.86252089 0 0 Z " fill="#030304" transform="translate(0,18)"/>
<path d="M0 0 C0 2 0 2 -1.5 3.625 C-1.995 4.07875 -2.49 4.5325 -3 5 C-2.01 5 -1.02 5 0 5 C-0.125 7.3125 -0.125 7.3125 -1 10 C-3 11 -5 12 -7 13 C-7.96906827 15.58414426 -7.96906827 15.58414426 -8 18 C-8.66 18 -9.32 18 -10 18 C-10.33 17.01 -10.66 16.02 -11 15 C-12.65 14.67 -14.3 14.34 -16 14 C-15.649375 14.721875 -15.29875 15.44375 -14.9375 16.1875 C-13.87212144 19.38363569 -13.9187472 20.8394149 -15 24 C-16.0625 25.8125 -16.0625 25.8125 -18 27 C-20.71847813 27.24713438 -23.2591631 27.13479526 -26 27 C-25.38125 26.505 -24.7625 26.01 -24.125 25.5 C-21.66041703 22.60049063 -21.19058084 20.51925644 -20.43359375 16.875 C-20 15 -20 15 -18.9375 13 C-17.92850708 10.84748177 -17.74041421 9.2285286 -17.5 6.875 C-17 3 -17 3 -15 1 C-12.28515625 0.5859375 -12.28515625 0.5859375 -9.0625 0.375 C-8.00160156 0.30023438 -6.94070312 0.22546875 -5.84765625 0.1484375 C-3.90045323 0.04693721 -1.94984664 0 0 0 Z " fill="#577DB5" transform="translate(63,13)"/>
<path d="M0 0 C2.25 0.8125 2.25 0.8125 3.25 2.8125 C4.57 2.4825 5.89 2.1525 7.25 1.8125 C7.58 2.8025 7.91 3.7925 8.25 4.8125 C9.24 5.1425 10.23 5.4725 11.25 5.8125 C12.1875 7.5625 12.1875 7.5625 12.25 9.8125 C10.875 12.625 10.875 12.625 8.25 14.8125 C5.1508576 15.0095553 2.28167352 14.41781736 -0.75 13.8125 C-2.10309789 13.61743662 -3.45719085 13.42905507 -4.8125 13.25 C-5.781875 13.105625 -6.75125 12.96125 -7.75 12.8125 C-7.75 13.4725 -7.75 14.1325 -7.75 14.8125 C-9.73 14.8125 -11.71 14.8125 -13.75 14.8125 C-14.08 11.8425 -14.41 8.8725 -14.75 5.8125 C-13.698125 5.379375 -12.64625 4.94625 -11.5625 4.5 C-9.18254079 3.49917208 -7.29535575 2.50940383 -5.125 1.0625 C-2.75 -0.1875 -2.75 -0.1875 0 0 Z " fill="#98BB6C" transform="translate(58.75,65.1875)"/>
<path d="M0 0 C10.73486467 0.18194686 19.5588997 5.23230346 27.125 12.6875 C29.14054053 14.82853645 30.85460634 16.75488389 32.35546875 19.28515625 C33.94189033 21.32833051 33.94189033 21.32833051 36.91796875 21.171875 C37.99691406 21.03265625 39.07585937 20.8934375 40.1875 20.75 C41.27417969 20.62109375 42.36085937 20.4921875 43.48046875 20.359375 C44.31191406 20.24078125 45.14335938 20.1221875 46 20 C46 20.99 46 21.98 46 23 C42.37 23.33 38.74 23.66 35 24 C35.474375 24.86625 35.94875 25.7325 36.4375 26.625 C38.8598036 31.85717577 39.13860837 36.78448463 39.125 42.5 C39.12886719 44.12421875 39.12886719 44.12421875 39.1328125 45.78125 C39.00272728 48.93390353 38.5876874 51.90298066 38 55 C37.34 55 36.68 55 36 55 C35.67 56.98 35.34 58.96 35 61 C33.90341064 57.71023192 34.20046862 56.28696233 35 53 C35.66 53 36.32 53 37 53 C36.67 45.08 36.34 37.16 36 29 C35.34 29 34.68 29 34 29 C33.505 26.03 33.505 26.03 33 23 C32.01 22.67 31.02 22.34 30 22 C29.360625 21.01 28.72125 20.02 28.0625 19 C26.33756036 15.88835952 26.33756036 15.88835952 23.75 15.125 C22.88375 15.063125 22.88375 15.063125 22 15 C22 15.66 22 16.32 22 17 C20.68 17 19.36 17 18 17 C18 16.34 18 15.68 18 15 C18.66 15 19.32 15 20 15 C20 14.34 20 13.68 20 13 C17.36 13 14.72 13 12 13 C11.78601563 12.36578125 11.57203125 11.7315625 11.3515625 11.078125 C10.14561047 8.74386889 10.14561047 8.74386889 7.3984375 8.171875 C6.40070312 8.03265625 5.40296875 7.8934375 4.375 7.75 C2.87066406 7.52570312 2.87066406 7.52570312 1.3359375 7.296875 C0.56507812 7.19890625 -0.20578125 7.1009375 -1 7 C-1 6.67 -1 6.34 -1 6 C2.3 5.67 5.6 5.34 9 5 C9 4.34 9 3.68 9 3 C8.071875 3.061875 7.14375 3.12375 6.1875 3.1875 C3 3 3 3 1.30078125 1.48828125 C0.87152344 0.99714844 0.44226562 0.50601562 0 0 Z " fill="#6C82A2" transform="translate(55,2)"/>
<path d="M0 0 C0.33 0 0.66 0 1 0 C1.061875 1.5778125 1.061875 1.5778125 1.125 3.1875 C2.02324092 7.10126401 2.89661162 8.5821474 6.125 10.93359375 C11.44640407 13.96014231 16.8605808 15.47226302 23 15 C23 14.01 23 13.02 23 12 C27.0526574 11.91377325 30.74545417 12.1011456 34.75 12.75 C38.21304228 13.21471052 38.21304228 13.21471052 41.1875 11.4375 C42.31137177 8.06588468 41.37781285 6.19072449 40 3 C41.32 3.33 42.64 3.66 44 4 C44.495 5.98 44.495 5.98 45 8 C45.66 8 46.32 8 47 8 C46.67 9.98 46.34 11.96 46 14 C36.00874425 19.13312222 25.90525054 18.38451422 15 18 C15 17.34 15 16.68 15 16 C13.989375 15.9175 12.97875 15.835 11.9375 15.75 C7.62213084 15.15993932 4.65261803 13.31083998 1 11 C1 10.34 1 9.68 1 9 C0.34 9 -0.32 9 -1 9 C-0.67 6.03 -0.34 3.06 0 0 Z " fill="#F0F5DA" transform="translate(28,66)"/>
<path d="M0 0 C2.97 0.495 2.97 0.495 6 1 C6 1.66 6 2.32 6 3 C5.34 3 4.68 3 4 3 C3.7834375 3.86625 3.7834375 3.86625 3.5625 4.75 C3.04166667 6.83333333 2.52083333 8.91666667 2 11 C1.34 11 0.68 11 0 11 C0.144375 11.60328125 0.28875 12.2065625 0.4375 12.828125 C0.7159375 14.02695312 0.7159375 14.02695312 1 15.25 C1.185625 16.03890625 1.37125 16.8278125 1.5625 17.640625 C2 20 2 20 2 24 C2.66 24 3.32 24 4 24 C5.4375 25.6796875 5.4375 25.6796875 7 27.875 C8.59356457 30.09802257 10.06234725 32.06234725 12 34 C12 34.99 12 35.98 12 37 C13.32 37 14.64 37 16 37 C19 40.21428571 19 40.21428571 19 43 C20.65 43 22.3 43 24 43 C24 43.66 24 44.32 24 45 C25.39025391 45.09087891 25.39025391 45.09087891 26.80859375 45.18359375 C28.00613281 45.26738281 29.20367187 45.35117188 30.4375 45.4375 C31.63246094 45.51871094 32.82742187 45.59992188 34.05859375 45.68359375 C37 46 37 46 38 47 C40.01964199 47.07244053 42.04167124 47.08377188 44.0625 47.0625 C45.16722656 47.05347656 46.27195313 47.04445312 47.41015625 47.03515625 C48.69212891 47.01775391 48.69212891 47.01775391 50 47 C46.25 49 46.25 49 44 49 C44 50.32 44 51.64 44 53 C43.01 53 42.02 53 41 53 C41 51.68 41 50.36 41 49 C37.37 49 33.74 49 30 49 C30 48.34 30 47.68 30 47 C29.3709375 46.92523438 28.741875 46.85046875 28.09375 46.7734375 C17.19988349 45.0999821 10.51381041 38.66198193 4 30 C4 29.34 4 28.68 4 28 C3.34 28 2.68 28 2 28 C-1.8904533 18.62122864 -1.4926223 9.88862272 0 0 Z " fill="#A3AEAD" transform="translate(11,39)"/>
<path d="M0 0 C1.22589844 0.01353516 1.22589844 0.01353516 2.4765625 0.02734375 C3.41628906 0.04474609 3.41628906 0.04474609 4.375 0.0625 C4.51059675 2.62678515 4.60933188 5.18385216 4.6875 7.75 C4.7503418 8.8318457 4.7503418 8.8318457 4.81445312 9.93554688 C4.91133852 14.17912704 4.80942176 15.56209012 1.90625 18.90625 C0.65328125 19.97359375 0.65328125 19.97359375 -0.625 21.0625 C-1.49738858 23.74040896 -1.49738858 23.74040896 -1.625 26.0625 C-1.955 26.0625 -2.285 26.0625 -2.625 26.0625 C-2.74617188 24.76054688 -2.86734375 23.45859375 -2.9921875 22.1171875 C-3.16109385 20.3905893 -3.33038501 18.66402872 -3.5 16.9375 C-3.57863281 16.0815625 -3.65726562 15.225625 -3.73828125 14.34375 C-4.20720718 9.65449072 -4.89713429 5.49106339 -6.625 1.0625 C-4.21954362 -0.14022819 -2.67503047 -0.03821472 0 0 Z " fill="#030303" transform="translate(96.625,24.9375)"/>
<path d="M0 0 C-0.54897989 3.73634075 -1.92837808 5.14561476 -4.8125 7.5 C-7.12262556 9.4216608 -9.27426606 11.28148358 -11.375 13.4375 C-13 15 -13 15 -15 15 C-16.53445628 18.72554925 -17.86360758 22.48627631 -19.125 26.3125 C-19.47820313 27.38113281 -19.83140625 28.44976562 -20.1953125 29.55078125 C-20.59363281 30.76314453 -20.59363281 30.76314453 -21 32 C-21.66 32 -22.32 32 -23 32 C-23 33.65 -23 35.3 -23 37 C-23.99 37.495 -23.99 37.495 -25 38 C-25 35.03 -25 32.06 -25 29 C-24.34 29 -23.68 29 -23 29 C-22.773125 27.700625 -22.54625 26.40125 -22.3125 25.0625 C-20.45572764 16.80440754 -16.35672594 10.50916248 -10 5 C-9.34 5 -8.68 5 -8 5 C-8 4.34 -8 3.68 -8 3 C-2.25 0 -2.25 0 0 0 Z " fill="#667182" transform="translate(33,6)"/>
<path d="M0 0 C4.62 0 9.24 0 14 0 C14 0.66 14 1.32 14 2 C13.34 2 12.68 2 12 2 C12 2.66 12 3.32 12 4 C13.32 4 14.64 4 16 4 C16 3.34 16 2.68 16 2 C18.25 2.125 18.25 2.125 21 3 C23.1875 6 23.1875 6 25 9 C25.66 9.33 26.32 9.66 27 10 C27.625 13.0625 27.625 13.0625 28 16 C28.66 16 29.32 16 30 16 C30.98043964 18.94131891 31.11621202 20.82501665 31.09765625 23.88671875 C31.09443359 24.82451172 31.09121094 25.76230469 31.08789062 26.72851562 C31.07532227 28.19321289 31.07532227 28.19321289 31.0625 29.6875 C31.05798828 30.67556641 31.05347656 31.66363281 31.04882812 32.68164062 C31.03704303 35.12115474 31.02059011 37.56054689 31 40 C30.67 40 30.34 40 30 40 C29.98018066 39.42032471 29.96036133 38.84064941 29.93994141 38.2434082 C29.84427399 35.59934063 29.73476547 32.9560183 29.625 30.3125 C29.5940625 29.40048828 29.563125 28.48847656 29.53125 27.54882812 C29.30727952 21.03057645 29.30727952 21.03057645 27 15 C25.67511887 14.63451555 24.33981486 14.3062434 23 14 C20.25 11.5625 20.25 11.5625 18 9 C18 8.34 18 7.68 18 7 C15.69 6.67 13.38 6.34 11 6 C10.67 4.68 10.34 3.36 10 2 C8.1128125 1.9690625 8.1128125 1.9690625 6.1875 1.9375 C5.47980469 1.92589844 4.77210937 1.91429688 4.04296875 1.90234375 C1.79694539 1.91736783 1.79694539 1.91736783 -1 3 C-0.67 2.01 -0.34 1.02 0 0 Z " fill="#C1C6CE" transform="translate(61,15)"/>
<path d="M0 0 C0.99 0 1.98 0 3 0 C3 0.66 3 1.32 3 2 C3.99 2 4.98 2 6 2 C6 2.66 6 3.32 6 4 C6.825 4.268125 7.65 4.53625 8.5 4.8125 C12.36915561 6.12524922 16.17994294 7.55101284 20 9 C20 9.66 20 10.32 20 11 C23.18848562 10.91831339 26.37516987 10.80554926 29.5625 10.6875 C30.90538086 10.65366211 30.90538086 10.65366211 32.27539062 10.61914062 C36.50783611 10.44860253 40.03613926 10.20839541 43.90234375 8.39453125 C47 7 47 7 49.4375 7.3125 C49.953125 7.539375 50.46875 7.76625 51 8 C42.88197635 13.17643391 35.47856811 14.17122575 26 14 C25.67 13.67 25.34 13.34 25 13 C22.81980521 12.60333773 20.6303537 12.25684763 18.4375 11.9375 C17.23996094 11.76089844 16.04242188 11.58429688 14.80859375 11.40234375 C13.88175781 11.26957031 12.95492187 11.13679688 12 11 C12 10.34 12 9.68 12 9 C11.236875 9.0825 10.47375 9.165 9.6875 9.25 C7 9 7 9 5.1875 7.125 C4 5 4 5 4 3 C2.68 3 1.36 3 0 3 C0 2.01 0 1.02 0 0 Z " fill="#D3E39C" transform="translate(23,73)"/>
<path d="M0 0 C0 0.99 0 1.98 0 3 C-2.31 3.33 -4.62 3.66 -7 4 C-6.67 6.31 -6.34 8.62 -6 11 C-4.35 11.33 -2.7 11.66 -1 12 C-1 11.34 -1 10.68 -1 10 C-1.99 10 -2.98 10 -4 10 C-4 9.01 -4 8.02 -4 7 C-2.35 7 -0.7 7 1 7 C1.04241723 9.33294775 1.04092937 11.66702567 1 14 C0 15 0 15 -3.875 15.3125 C-7.68745415 15.24417645 -7.68745415 15.24417645 -10 13.4375 C-11.38885542 10.05216491 -11.45310904 7.62487235 -11 4 C-8.07275826 -0.56649711 -5.15004683 -0.39615745 0 0 Z " fill="#719587" transform="translate(61,38)"/>
<path d="M0 0 C0.33 0.66 0.66 1.32 1 2 C0.319375 2.825 -0.36125 3.65 -1.0625 4.5 C-3.18839446 7.71954646 -3.11316005 9.96194392 -2.51831055 13.79296875 C-1.4283492 18.43416075 0.67954479 22.67505059 2.6484375 26.99609375 C2.96296875 27.71410156 3.2775 28.43210937 3.6015625 29.171875 C3.89369629 29.8122168 4.18583008 30.45255859 4.48681641 31.11230469 C5.11061169 33.40687419 4.74323093 34.77216065 4 37 C-5 19.78640777 -5 19.78640777 -5 13 C-6.65 13.66 -8.3 14.32 -10 15 C-9.731875 14.34 -9.46375 13.68 -9.1875 13 C-8.52454509 11.32516654 -7.88519641 9.63860644 -7.33984375 7.921875 C-7.10394531 7.20515625 -6.86804688 6.4884375 -6.625 5.75 C-6.41101563 5.06421875 -6.19703125 4.3784375 -5.9765625 3.671875 C-5 2 -5 2 -2.9609375 1.328125 C-2.31382813 1.21984375 -1.66671875 1.1115625 -1 1 C-0.67 0.67 -0.34 0.34 0 0 Z " fill="#171717" transform="translate(96,55)"/>
<path d="M0 0 C-0.33 3.3 -0.66 6.6 -1 10 C-6.94 10.495 -6.94 10.495 -13 11 C-13.33 9.35 -13.66 7.7 -14 6 C-13.21625 5.54625 -12.4325 5.0925 -11.625 4.625 C-8.96301969 3.11571258 -8.96301969 3.11571258 -7 1 C-4.60938484 0.40234621 -2.46474039 0 0 0 Z " fill="#8EB55C" transform="translate(59,66)"/>
<path d="M0 0 C0.33 0 0.66 0 1 0 C0.67 2.64 0.34 5.28 0 8 C0.99 8.33 1.98 8.66 3 9 C2.67 9.33 2.34 9.66 2 10 C1.92851801 11.35243917 1.91600546 12.70834367 1.9375 14.0625 C1.958125 15.361875 1.97875 16.66125 2 18 C1.34 18 0.68 18 0 18 C0 16.35 0 14.7 0 13 C-0.7425 13.66 -1.485 14.32 -2.25 15 C-5 17 -5 17 -9 17 C-10.25664978 14.09399739 -11 12.20395416 -11 9 C-8.03 8.34 -5.06 7.68 -2 7 C-1.34 4.69 -0.68 2.38 0 0 Z " fill="#CADFC7" transform="translate(49,32)"/>
<path d="M0 0 C0.9590625 0.2784375 0.9590625 0.2784375 1.9375 0.5625 C6.07334611 1.15333516 9.8851173 0.58271759 14 0 C14 0.99 14 1.98 14 3 C10.37 3.33 6.74 3.66 3 4 C3.474375 4.86625 3.94875 5.7325 4.4375 6.625 C6.8598036 11.85717577 7.13860837 16.78448463 7.125 22.5 C7.12757812 23.5828125 7.13015625 24.665625 7.1328125 25.78125 C7.00272728 28.93390353 6.5876874 31.90298066 6 35 C5.34 35 4.68 35 4 35 C3.67 36.98 3.34 38.96 3 41 C1.90341064 37.71023192 2.20046862 36.28696233 3 33 C3.66 33 4.32 33 5 33 C4.67 25.08 4.34 17.16 4 9 C3.34 9 2.68 9 2 9 C1.34 6.03 0.68 3.06 0 0 Z " fill="#737673" transform="translate(87,22)"/>
<path d="M0 0 C2.05078125 0.03255208 4.1015625 0.06510417 6.15234375 0.09765625 C6.15234375 0.42765625 6.15234375 0.75765625 6.15234375 1.09765625 C9.12234375 1.59265625 9.12234375 1.59265625 12.15234375 2.09765625 C12.15234375 2.42765625 12.15234375 2.75765625 12.15234375 3.09765625 C10.17234375 3.09765625 8.19234375 3.09765625 6.15234375 3.09765625 C6.50296875 3.65453125 6.85359375 4.21140625 7.21484375 4.78515625 C8.37080368 7.63652408 7.96201813 9.18282847 7.15234375 12.09765625 C5.83234375 11.76765625 4.51234375 11.43765625 3.15234375 11.09765625 C3.15234375 10.43765625 3.15234375 9.77765625 3.15234375 9.09765625 C1.94578125 8.78828125 1.94578125 8.78828125 0.71484375 8.47265625 C-0.55359375 7.79203125 -0.55359375 7.79203125 -1.84765625 7.09765625 C-2.72265625 4.03515625 -2.72265625 4.03515625 -2.84765625 1.09765625 C-1.84765625 0.09765625 -1.84765625 0.09765625 0 0 Z " fill="#719698" transform="translate(31.84765625,37.90234375)"/>
<path d="M0 0 C5.50588235 0.48941176 5.50588235 0.48941176 7.875 2.9375 C9 5 9 5 9 7 C10.65 7 12.3 7 14 7 C14 7.66 14 8.32 14 9 C14.92683594 9.06058594 15.85367188 9.12117188 16.80859375 9.18359375 C18.00613281 9.26738281 19.20367187 9.35117188 20.4375 9.4375 C21.63246094 9.51871094 22.82742187 9.59992188 24.05859375 9.68359375 C27 10 27 10 28 11 C30.01964199 11.07244053 32.04167124 11.08377188 34.0625 11.0625 C35.16722656 11.05347656 36.27195313 11.04445313 37.41015625 11.03515625 C38.69212891 11.01775391 38.69212891 11.01775391 40 11 C36.25 13 36.25 13 34 13 C34 14.32 34 15.64 34 17 C33.01 17 32.02 17 31 17 C31 15.68 31 14.36 31 13 C27.37 13 23.74 13 20 13 C20 12.34 20 11.68 20 11 C19.3709375 10.92523438 18.741875 10.85046875 18.09375 10.7734375 C11.42159458 9.74849796 6.88480052 7.70521226 2 3 C1.34 2.01 0.68 1.02 0 0 Z " fill="#95AB66" transform="translate(21,75)"/>
<path d="M0 0 C3.63 0 7.26 0 11 0 C11 2.97 11 5.94 11 9 C11.66 9.33 12.32 9.66 13 10 C13 10.99 13 11.98 13 13 C11.35 12.67 9.7 12.34 8 12 C7.67 11.01 7.34 10.02 7 9 C6.01 9 5.02 9 4 9 C4 10.65 4 12.3 4 14 C3.34 14 2.68 14 2 14 C2 11.36 2 8.72 2 6 C3.65 6 5.3 6 7 6 C7 4.68 7 3.36 7 2 C5.68 2 4.36 2 3 2 C2.67 2.66 2.34 3.32 2 4 C1.34 2.68 0.68 1.36 0 0 Z " fill="#638989" transform="translate(71,37)"/>
<path d="M0 0 C0.99 0.33 1.98 0.66 3 1 C1.68 1.33 0.36 1.66 -1 2 C-0.67 3.32 -0.34 4.64 0 6 C2.58361518 6.05407567 5.16609255 6.093707 7.75 6.125 C8.47960938 6.14175781 9.20921875 6.15851563 9.9609375 6.17578125 C13.88718422 6.2114744 16.61609091 6.00820773 20 4 C20.99 4 21.98 4 23 4 C22.67 2.68 22.34 1.36 22 0 C22.99 0.99 23.98 1.98 25 3 C23.92598892 5.91517292 23.22189824 7.77810176 21 10 C19.08203125 10.01171875 19.08203125 10.01171875 16.8125 9.6875 C16.01585938 9.57921875 15.21921875 9.4709375 14.3984375 9.359375 C13.60695313 9.24078125 12.81546875 9.1221875 12 9 C11.29101562 8.90203125 10.58203125 8.8040625 9.8515625 8.703125 C8.23299098 8.47850691 6.61625538 8.24071889 5 8 C5 8.66 5 9.32 5 10 C3.02 10 1.04 10 -1 10 C-1.33 7.03 -1.66 4.06 -2 1 C-1.34 0.67 -0.68 0.34 0 0 Z " fill="#C0D895" transform="translate(46,70)"/>
<path d="M0 0 C5.61 0 11.22 0 17 0 C15.68 2.64 14.36 5.28 13 8 C12.67 7.34 12.34 6.68 12 6 C10.7625 6.020625 9.525 6.04125 8.25 6.0625 C5.3359175 6.06766681 2.79046673 5.93015558 0 5 C0 3.35 0 1.7 0 0 Z " fill="#141415" transform="translate(0,18)"/>
<path d="M0 0 C0.1953125 2.05078125 0.390625 4.1015625 0.5859375 6.15234375 C0.72257812 6.76207031 0.85921875 7.37179688 1 8 C1.66 8.33 2.32 8.66 3 9 C1.02 9.33 -0.96 9.66 -3 10 C-3 8.02 -3 6.04 -3 4 C-4.65 4 -6.3 4 -8 4 C-8 4.99 -8 5.98 -8 7 C-7.01 7 -6.02 7 -5 7 C-5 7.66 -5 8.32 -5 9 C-6.66611905 9.042721 -8.33382885 9.04063832 -10 9 C-11 8 -11 8 -11.0625 4.4375 C-11.041875 3.303125 -11.02125 2.16875 -11 1 C-3.375 -1.125 -3.375 -1.125 0 0 Z " fill="#F1F4F2" transform="translate(65,41)"/>
<path d="M0 0 C1.65 0.33 3.3 0.66 5 1 C6.44230769 7.25 6.44230769 7.25 4.5625 10.4375 C0.8760282 12.68534866 -1.72573289 12.28495114 -6 12 C-5.38125 11.505 -4.7625 11.01 -4.125 10.5 C-1.25011778 7.11778563 -0.86548583 4.32742915 0 0 Z " fill="#60849A" transform="translate(43,28)"/>
<path d="M0 0 C0 0.33 0 0.66 0 1 C-4.95 1.33 -9.9 1.66 -15 2 C-15 2.66 -15 3.32 -15 4 C-14.01 4 -13.02 4 -12 4 C-12 6.64 -12 9.28 -12 12 C-13.32 11.67 -14.64 11.34 -16 11 C-16.33 9.02 -16.66 7.04 -17 5 C-17.99 5 -18.98 5 -20 5 C-20 4.01 -20 3.02 -20 2 C-21.98 2 -23.96 2 -26 2 C-26 1.67 -26 1.34 -26 1 C-17.31238511 0.34344611 -8.71782637 -0.16311941 0 0 Z " fill="#BECECE" transform="translate(81,36)"/>
<path d="M0 0 C7.73175548 0.25350018 13.67574456 2.46008806 20 7 C20.33 7.99 20.66 8.98 21 10 C19.783125 9.690625 18.56625 9.38125 17.3125 9.0625 C11.26923779 7.70131794 5.17054072 7.36241197 -1 7 C-1 6.67 -1 6.34 -1 6 C2.3 5.67 5.6 5.34 9 5 C9 4.34 9 3.68 9 3 C8.071875 3.061875 7.14375 3.12375 6.1875 3.1875 C3 3 3 3 1.30078125 1.48828125 C0.87152344 0.99714844 0.44226562 0.50601562 0 0 Z " fill="#8993A5" transform="translate(55,2)"/>
<path d="M0 0 C2.25 0.125 2.25 0.125 5 1 C7.1875 4 7.1875 4 9 7 C9.66 7.33 10.32 7.66 11 8 C11.625 11.0625 11.625 11.0625 12 14 C12.66 14 13.32 14 14 14 C14.98043964 16.94131891 15.11621202 18.82501665 15.09765625 21.88671875 C15.09443359 22.82451172 15.09121094 23.76230469 15.08789062 24.72851562 C15.07951172 25.70498047 15.07113281 26.68144531 15.0625 27.6875 C15.05798828 28.67556641 15.05347656 29.66363281 15.04882812 30.68164062 C15.03704303 33.12115474 15.02059011 35.56054689 15 38 C14.67 38 14.34 38 14 38 C13.98598145 37.14619751 13.98598145 37.14619751 13.97167969 36.27514648 C13.91753831 33.66176347 13.83398255 31.05008758 13.75 28.4375 C13.73582031 27.54224609 13.72164062 26.64699219 13.70703125 25.72460938 C13.4837034 19.62775914 12.34499175 16.09107744 9 11 C9 10.34 9 9.68 9 9 C8.01 8.67 7.02 8.34 6 8 C4.61876037 6.03277992 3.28511874 4.03131672 2 2 C1.34 1.34 0.68 0.68 0 0 Z " fill="#A8ABB0" transform="translate(77,17)"/>
<path d="M0 0 C4.5 5.625 4.5 5.625 4.390625 9.86328125 C4.37773438 10.74951172 4.36484375 11.63574219 4.3515625 12.54882812 C4.31804687 13.46083984 4.28453125 14.37285156 4.25 15.3125 C4.23195313 16.24384766 4.21390625 17.17519531 4.1953125 18.13476562 C4.14834888 20.42424197 4.08269475 22.71158184 4 25 C2.68 25.33 1.36 25.66 0 26 C0 24.02 0 22.04 0 20 C0.66 19.67 1.32 19.34 2 19 C1.34 12.73 0.68 6.46 0 0 Z " fill="#C6CAC5" transform="translate(87,30)"/>
<path d="M0 0 C-0.55282505 3.70717977 -1.89906323 5.14208237 -4.75 7.5 C-5.46671875 8.09941406 -6.1834375 8.69882813 -6.921875 9.31640625 C-7.60765625 9.87199219 -8.2934375 10.42757813 -9 11 C-10.485 12.2065625 -10.485 12.2065625 -12 13.4375 C-12.99 14.2109375 -12.99 14.2109375 -14 15 C-13.57742724 13.5164999 -13.13643678 12.03823576 -12.6875 10.5625 C-12.44386719 9.73878906 -12.20023438 8.91507813 -11.94921875 8.06640625 C-11.63597656 7.38449219 -11.32273437 6.70257812 -11 6 C-10.01 5.67 -9.02 5.34 -8 5 C-8 4.34 -8 3.68 -8 3 C-2.25 0 -2.25 0 0 0 Z " fill="#7E879B" transform="translate(33,6)"/>
<path d="M0 0 C1.76424607 3.08923087 2.36917568 5.65462185 2.6875 9.1875 C2.77386719 10.06792969 2.86023438 10.94835938 2.94921875 11.85546875 C2.97435547 12.91701172 2.97435547 12.91701172 3 14 C2 15 2 15 -1.5625 15.0625 C-2.696875 15.041875 -3.83125 15.02125 -5 15 C-4.67 12.69 -4.34 10.38 -4 8 C-2.68 8 -1.36 8 0 8 C0 5.36 0 2.72 0 0 Z " fill="#DDE2DF" transform="translate(86,30)"/>
<path d="M0 0 C5.28 0.33 10.56 0.66 16 1 C16 1.99 16 2.98 16 4 C14.58622218 4.36552803 13.16879424 4.71695495 11.75 5.0625 C10.96109375 5.25972656 10.1721875 5.45695312 9.359375 5.66015625 C6.75424124 6.03539903 5.39478098 6.10338049 3 5 C2.01 3.35 1.02 1.7 0 0 Z " fill="#0B0B0B" transform="translate(85,18)"/>
<path d="M0 0 C-0.99 0.66 -1.98 1.32 -3 2 C-3.72965366 4.56282742 -3.72965366 4.56282742 -4 7 C-7.3 7 -10.6 7 -14 7 C-14 5.68 -14 4.36 -14 3 C-12.04486839 2.303447 -10.08577524 1.61800435 -8.125 0.9375 C-7.03445312 0.55464844 -5.94390625 0.17179687 -4.8203125 -0.22265625 C-2 -1 -2 -1 0 0 Z " fill="#1C1F14" transform="translate(69,85)"/>
<path d="M0 0 C0.640625 1.76953125 0.640625 1.76953125 1 4 C0.109375 5.88671875 0.109375 5.88671875 -1.25 7.6875 C-1.68828125 8.28949219 -2.1265625 8.89148438 -2.578125 9.51171875 C-4 11 -4 11 -7 12 C-7 11.34 -7 10.68 -7 10 C-7.7425 10.680625 -8.485 11.36125 -9.25 12.0625 C-10.1575 12.701875 -11.065 13.34125 -12 14 C-14.171875 13.62109375 -14.171875 13.62109375 -16 13 C-14.71186658 12.16121545 -13.41936744 11.32913217 -12.125 10.5 C-11.40570313 10.0359375 -10.68640625 9.571875 -9.9453125 9.09375 C-8 8 -8 8 -6 8 C-5.67 7.01 -5.34 6.02 -5 5 C-3.37347684 3.29413425 -1.70993434 1.6222454 0 0 Z " fill="#2C3121" transform="translate(85,70)"/>
<path d="M0 0 C6.18157144 0.60204605 11.61833761 2.44682181 17.4375 4.5625 C18.82098633 5.0565332 18.82098633 5.0565332 20.23242188 5.56054688 C22.4904648 6.36782647 24.74615565 7.18108727 27 8 C26.01 8.495 26.01 8.495 25 9 C25 9.66 25 10.32 25 11 C24.34 11 23.68 11 23 11 C23 10.34 23 9.68 23 9 C22.42894531 8.84144531 21.85789062 8.68289063 21.26953125 8.51953125 C14.00973874 6.43046536 7.01935413 3.78353698 0 1 C0 0.67 0 0.34 0 0 Z " fill="#0D0D0D" transform="translate(0,0)"/>
<path d="M0 0 C0.33 0.66 0.66 1.32 1 2 C0.360625 2.886875 -0.27875 3.77375 -0.9375 4.6875 C-2.80829757 7.69211428 -3.59423966 9.5510371 -4 13 C-5.98 13.66 -7.96 14.32 -10 15 C-9.731875 14.34 -9.46375 13.68 -9.1875 13 C-8.52454509 11.32516654 -7.88519641 9.63860644 -7.33984375 7.921875 C-7.10394531 7.20515625 -6.86804688 6.4884375 -6.625 5.75 C-6.41101563 5.06421875 -6.19703125 4.3784375 -5.9765625 3.671875 C-5 2 -5 2 -2.9609375 1.328125 C-2.31382813 1.21984375 -1.66671875 1.1115625 -1 1 C-0.67 0.67 -0.34 0.34 0 0 Z " fill="#1C1D1B" transform="translate(96,55)"/>
<path d="M0 0 C-8.25583597 5.26430953 -15.43414639 5.85970081 -25 6 C-25.33 5.34 -25.66 4.68 -26 4 C-21.05 4 -16.1 4 -11 4 C-11 3.34 -11 2.68 -11 2 C-4.03571429 -1.34821429 -4.03571429 -1.34821429 0 0 Z " fill="#C7D881" transform="translate(74,81)"/>
<path d="M0 0 C2 3 2 3 2 7 C2.66 7 3.32 7 4 7 C5.4375 8.609375 5.4375 8.609375 7 10.75 C7.515625 11.44609375 8.03125 12.1421875 8.5625 12.859375 C9.89995249 14.85101621 10.98355423 16.83027923 12 19 C8.82461668 18.65978036 7.97723135 17.97533396 5.75 15.5625 C4 13 4 13 4 11 C3.34 11 2.68 11 2 11 C0.57741188 7.17679443 -0.24042276 4.08718695 0 0 Z " fill="#9CB288" transform="translate(11,56)"/>
<path d="M0 0 C0.50227431 5.27388024 -0.67105798 7.91015695 -4 12 C-4.99 12.33 -5.98 12.66 -7 13 C-6.63176895 5.75812274 -6.63176895 5.75812274 -3.5 2 C-1 0 -1 0 0 0 Z " fill="#010101" transform="translate(101,41)"/>
<path d="M0 0 C7.43378943 -0.33452052 13.19877155 -0.13902852 20 3 C20 3.33 20 3.66 20 4 C17.22763506 3.91308261 14.45852922 3.80622639 11.6875 3.6875 C10.50897461 3.65366211 10.50897461 3.65366211 9.30664062 3.61914062 C8.54931641 3.58369141 7.79199219 3.54824219 7.01171875 3.51171875 C6.31522217 3.48553467 5.61872559 3.45935059 4.90112305 3.43237305 C2.50649641 2.88776232 1.56727453 1.84170838 0 0 Z " fill="#B0B3B8" transform="translate(41,4)"/>
<path d="M0 0 C1.97265625 0.265625 1.97265625 0.265625 4.97265625 2.265625 C6.96235575 2.65576216 8.96285494 2.99765149 10.97265625 3.265625 C10.97265625 3.925625 10.97265625 4.585625 10.97265625 5.265625 C12.29265625 5.595625 13.61265625 5.925625 14.97265625 6.265625 C9.96097414 6.57885513 6.65283399 5.91412829 2.0390625 4 C-1.2739477 2.82259751 -4.53537114 2.57740827 -8.02734375 2.265625 C-5.42029477 -0.34142398 -3.55396134 0.02657167 0 0 Z " fill="#9C9EA6" transform="translate(53.02734375,1.734375)"/>
<path d="M0 0 C11 2 11 2 13.875 4.875 C14.96561346 6.93504766 15.59134551 8.71153487 16 11 C13 10 13 10 11.0625 7 C9.33756036 3.88835952 9.33756036 3.88835952 6.75 3.125 C5.88375 3.063125 5.88375 3.063125 5 3 C5 3.66 5 4.32 5 5 C3.68 5 2.36 5 1 5 C1 4.34 1 3.68 1 3 C1.66 3 2.32 3 3 3 C3 2.34 3 1.68 3 1 C2.01 0.67 1.02 0.34 0 0 Z " fill="#838794" transform="translate(72,14)"/>
<path d="M0 0 C1.65 0 3.3 0 5 0 C5.04241723 2.33294775 5.04092937 4.66702567 5 7 C3.10871658 8.89128342 0.42932274 8.2366852 -2.08984375 8.328125 C-2.72019531 8.21984375 -3.35054687 8.1115625 -4 8 C-4.66 7.01 -5.32 6.02 -6 5 C-5.2575 5.185625 -4.515 5.37125 -3.75 5.5625 C-1.05009037 5.99203108 0.44631077 5.85122974 3 5 C3 4.34 3 3.68 3 3 C2.01 3 1.02 3 0 3 C0 2.01 0 1.02 0 0 Z " fill="#7DA07F" transform="translate(57,45)"/>
<path d="M0 0 C0.33 0.99 0.66 1.98 1 3 C1.99 3.33 2.98 3.66 4 4 C3.67 5.65 3.34 7.3 3 9 C1.68 8.67 0.36 8.34 -1 8 C-1 7.34 -1 6.68 -1 6 C-1.66 6 -2.32 6 -3 6 C-2.625 3.5625 -2.625 3.5625 -2 1 C-1.34 0.67 -0.68 0.34 0 0 Z " fill="#739A87" transform="translate(36,41)"/>
<path d="M0 0 C0.99 0 1.98 0 3 0 C3.33 2.31 3.66 4.62 4 7 C2.125 7.625 2.125 7.625 0 8 C-0.66 7.34 -1.32 6.68 -2 6 C-1.64644564 3.73725212 -1.02455574 2.04911148 0 0 Z " fill="#537796" transform="translate(45,29)"/>
<path d="M0 0 C0.99 0.495 0.99 0.495 2 1 C2.625 3.5625 2.625 3.5625 3 6 C4.65 4.68 6.3 3.36 8 2 C7.59311 4.84823003 7.10927742 5.8941375 5 7.9375 C2.70080717 10.30854261 2.35863113 11.77231982 2 15 C1.67 15 1.34 15 1 15 C0.67 10.05 0.34 5.1 0 0 Z " fill="#2A2A2A" transform="translate(93,36)"/>
<path d="M0 0 C-3.75 2 -3.75 2 -6 2 C-6 3.32 -6 4.64 -6 6 C-6.99 6 -7.98 6 -9 6 C-9 4.68 -9 3.36 -9 2 C-12.63 2 -16.26 2 -20 2 C-20 1.67 -20 1.34 -20 1 C-17.60429729 0.8312461 -15.20846637 0.66493164 -12.8125 0.5 C-12.13896484 0.45230469 -11.46542969 0.40460938 -10.77148438 0.35546875 C-7.17363248 0.10976179 -3.60627694 -0.05601984 0 0 Z " fill="#69714D" transform="translate(61,86)"/>
<path d="M0 0 C0.99 0 1.98 0 3 0 C5.1875 2.5 5.1875 2.5 7 5 C3.32589215 6.17571451 -0.16929183 6.07366746 -4 6 C-3.67 5.01 -3.34 4.02 -3 3 C-2.67 3.66 -2.34 4.32 -2 5 C-1.34 5 -0.68 5 0 5 C0 3.35 0 1.7 0 0 Z " fill="#AEC6B4" transform="translate(75,46)"/>
<path d="M0 0 C0.75 1.6875 0.75 1.6875 1 4 C-1.19434113 7.41341953 -3.20764006 9.51014431 -7 11 C-7 8.69 -7 6.38 -7 4 C-6.34 4.66 -5.68 5.32 -5 6 C-2.12579877 3.28395285 -2.12579877 3.28395285 0 0 Z " fill="#0E0F0E" transform="translate(100,47)"/>
<path d="M0 0 C0.66 0.33 1.32 0.66 2 1 C1.34 6.94 0.68 12.88 0 19 C-0.33 19 -0.66 19 -1 19 C-1.22397733 16.95999027 -1.42848537 14.91783811 -1.625 12.875 C-1.74101562 11.73804688 -1.85703125 10.60109375 -1.9765625 9.4296875 C-2.00112837 5.83488201 -1.32167811 3.319329 0 0 Z " fill="#838B88" transform="translate(10,38)"/>
<path d="M0 0 C-0.2578125 1.890625 -0.2578125 1.890625 -1 4 C-2.7421875 5.046875 -2.7421875 5.046875 -4.875 5.75 C-5.57367188 5.99234375 -6.27234375 6.2346875 -6.9921875 6.484375 C-9 7 -9 7 -12 7 C-10.68 6.34 -9.36 5.68 -8 5 C-8 4.34 -8 3.68 -8 3 C-2.25 0 -2.25 0 0 0 Z " fill="#696F7A" transform="translate(33,6)"/>
<path d="M0 0 C0.66 0.33 1.32 0.66 2 1 C2 2.65 2 4.3 2 6 C1.34 6 0.68 6 0 6 C0 7.65 0 9.3 0 11 C-0.99 11.495 -0.99 11.495 -2 12 C-2 9.03 -2 6.06 -2 3 C-1.34 3 -0.68 3 0 3 C0 2.01 0 1.02 0 0 Z " fill="#606874" transform="translate(10,32)"/>
<path d="M0 0 C2.64 1.65 5.28 3.3 8 5 C8.33 4.34 8.66 3.68 9 3 C9 4.65 9 6.3 9 8 C5.56801397 6.76067171 2.69674368 5.49698489 0 3 C0 2.01 0 1.02 0 0 Z " fill="#272827" transform="translate(0,48)"/>
<path d="M0 0 C1.65 0 3.3 0 5 0 C6.4783226 2.95664519 6.06032783 5.74229737 6 9 C5.34 9 4.68 9 4 9 C3.67 6.69 3.34 4.38 3 2 C2.01 2 1.02 2 0 2 C0 1.34 0 0.68 0 0 Z " fill="#F7F9F8" transform="translate(66,38)"/>
<path d="M0 0 C0.66 0.33 1.32 0.66 2 1 C0.68 1.99 -0.64 2.98 -2 4 C-1.34 2.68 -0.68 1.36 0 0 Z M-2 4 C-3.11666174 7.34998521 -3.74694925 7.79340222 -6.5625 9.6875 C-7.20316406 10.12449219 -7.84382813 10.56148437 -8.50390625 11.01171875 C-8.99761719 11.33785156 -9.49132812 11.66398437 -10 12 C-8.48291727 8.46014029 -6.24676932 4 -2 4 Z " fill="#8190AB" transform="translate(38,6)"/>
<path d="M0 0 C0.62390625 0.18820313 1.2478125 0.37640625 1.890625 0.5703125 C0.91496388 1.73991237 -0.065 2.90592427 -1.046875 4.0703125 C-1.59214844 4.72 -2.13742188 5.3696875 -2.69921875 6.0390625 C-3.16457031 6.544375 -3.62992187 7.0496875 -4.109375 7.5703125 C-4.439375 7.5703125 -4.769375 7.5703125 -5.109375 7.5703125 C-5.33990997 4.72704786 -5.46840601 3.10885901 -3.859375 0.6953125 C-2.109375 -0.4296875 -2.109375 -0.4296875 0 0 Z " fill="#ABC38B" transform="translate(83.109375,70.4296875)"/>
<path d="M0 0 C0.33 0 0.66 0 1 0 C1.1953125 2.05078125 1.390625 4.1015625 1.5859375 6.15234375 C1.72257812 6.76207031 1.85921875 7.37179688 2 8 C2.66 8.33 3.32 8.66 4 9 C2.02 9.33 0.04 9.66 -2 10 C-1.33333333 6.66666667 -0.66666667 3.33333333 0 0 Z " fill="#F0F4F1" transform="translate(64,41)"/>
<path d="M0 0 C0 1.32 0 2.64 0 4 C-2.64 4 -5.28 4 -8 4 C-4.5 0 -4.5 0 0 0 Z " fill="#121212" transform="translate(52,88)"/>
<path d="M0 0 C0 3.41321235 -0.66867466 4.39472885 -2.5 7.1875 C-2.9640625 7.90292969 -3.428125 8.61835937 -3.90625 9.35546875 C-4.2671875 9.89816406 -4.628125 10.44085938 -5 11 C-5.99 10.67 -6.98 10.34 -8 10 C-6.85500893 8.52018126 -5.708983 7.04116318 -4.5625 5.5625 C-3.60537109 4.32693359 -3.60537109 4.32693359 -2.62890625 3.06640625 C-1 1 -1 1 0 0 Z " fill="#101010" transform="translate(79,81)"/>
<path d="M0 0 C0.33 0 0.66 0 1 0 C1.433125 1.6396875 1.433125 1.6396875 1.875 3.3125 C2.81893204 7.04013845 2.81893204 7.04013845 5 10 C2.83125748 9.49396008 1.00032373 9.00016187 -1 8 C-1.04241723 5.66705225 -1.04092937 3.33297433 -1 1 C-0.67 0.67 -0.34 0.34 0 0 Z " fill="#548259" transform="translate(52,42)"/>
<path d="M0 0 C1.32 0.33 2.64 0.66 4 1 C4.33 2.32 4.66 3.64 5 5 C5.66 5 6.32 5 7 5 C7 5.99 7 6.98 7 8 C6.01 8 5.02 8 4 8 C2.68 5.36 1.36 2.72 0 0 Z " fill="#F1F6E6" transform="translate(68,69)"/>
<path d="M0 0 C0.33 0 0.66 0 1 0 C1.33 2.31 1.66 4.62 2 7 C0.02 7.66 -1.96 8.32 -4 9 C-2.80100302 5.9168649 -1.52299523 2.93720508 0 0 Z " fill="#3E4239" transform="translate(90,61)"/>
<path d="M0 0 C-0.99 0.495 -0.99 0.495 -2 1 C-1.01 2.485 -1.01 2.485 0 4 C-1.98 4 -3.96 4 -6 4 C-6 2.68 -6 1.36 -6 0 C-3.50907189 -1.24546405 -2.58919267 -0.7767578 0 0 Z " fill="#31332C" transform="translate(61,88)"/>
<path d="M0 0 C0.66 0 1.32 0 2 0 C2.33 1.98 2.66 3.96 3 6 C3.99 6 4.98 6 6 6 C6 6.66 6 7.32 6 8 C4.33388095 8.042721 2.66617115 8.04063832 1 8 C0 7 0 7 -0.0625 3.4375 C-0.041875 2.303125 -0.02125 1.16875 0 0 Z " fill="#D7E2D9" transform="translate(54,42)"/>
<path d="M0 0 C0.33 0.66 0.66 1.32 1 2 C1.99 2.33 2.98 2.66 4 3 C3.67 3.33 3.34 3.66 3 4 C2.92851801 5.35243917 2.91600546 6.70834367 2.9375 8.0625 C2.958125 9.361875 2.97875 10.66125 3 12 C2.34 12 1.68 12 1 12 C1 10.35 1 8.7 1 7 C0.34 6.67 -0.32 6.34 -1 6 C-0.67 4.02 -0.34 2.04 0 0 Z " fill="#DCE8DB" transform="translate(48,38)"/>
<path d="M0 0 C1.45922693 0.11409593 2.91740598 0.24165544 4.375 0.375 C5.59316406 0.47941406 5.59316406 0.47941406 6.8359375 0.5859375 C9 1 9 1 11 3 C3.43365385 3.37211538 3.43365385 3.37211538 1.23828125 1.48828125 C0.82964844 0.99714844 0.42101563 0.50601562 0 0 Z " fill="#75777F" transform="translate(55,2)"/>
<path d="M0 0 C0.99 0 1.98 0 3 0 C3 2.31 3 4.62 3 7 C2.01 7 1.02 7 0 7 C0 4.69 0 2.38 0 0 Z " fill="#628A79" transform="translate(66,41)"/>
<path d="M0 0 C-3.83325617 2.70582788 -6.32538149 3.32613618 -11 3 C-4.23255814 -1.51162791 -4.23255814 -1.51162791 0 0 Z " fill="#CEDB98" transform="translate(74,81)"/>
<path d="M0 0 C0.99 0.99 1.98 1.98 3 3 C2.67 3.99 2.34 4.98 2 6 C-0.64 6.33 -3.28 6.66 -6 7 C-2.375 4 -2.375 4 1 4 C0.67 2.68 0.34 1.36 0 0 Z " fill="#AACA7F" transform="translate(68,70)"/>
<path d="M0 0 C2.02054804 1.64169528 4.02043058 3.30911778 6 5 C6 5.33 6 5.66 6 6 C4.35 6 2.7 6 1 6 C-0.0625 4.125 -0.0625 4.125 -1 2 C-0.67 1.34 -0.34 0.68 0 0 Z " fill="#777E8F" transform="translate(76,10)"/>
<path d="M0 0 C3.96 0 7.92 0 12 0 C12 0.33 12 0.66 12 1 C11.2575 1.144375 10.515 1.28875 9.75 1.4375 C7.07319309 1.91956351 7.07319309 1.91956351 4.875 2.75 C4.25625 2.8325 3.6375 2.915 3 3 C2.01 2.01 1.02 1.02 0 0 Z " fill="#ABADAE" transform="translate(41,4)"/>
<path d="M0 0 C0 1.98 0 3.96 0 6 C-0.99 6.33 -1.98 6.66 -3 7 C-3 5.02 -3 3.04 -3 1 C-1 0 -1 0 0 0 Z " fill="#CCD9C7" transform="translate(90,49)"/>
<path d="M0 0 C0 0.99 0 1.98 0 3 C0.66 3.33 1.32 3.66 2 4 C-0.64 4 -3.28 4 -6 4 C-2.25 0 -2.25 0 0 0 Z " fill="#668B93" transform="translate(43,36)"/>
<path d="M0 0 C4.75 0.75 4.75 0.75 7 3 C6.34 3 5.68 3 5 3 C5 3.66 5 4.32 5 5 C3.68 5 2.36 5 1 5 C1 4.34 1 3.68 1 3 C1.66 3 2.32 3 3 3 C3 2.34 3 1.68 3 1 C2.01 0.67 1.02 0.34 0 0 Z " fill="#7D8FA9" transform="translate(72,14)"/>
<path d="M0 0 C0.33 1.32 0.66 2.64 1 4 C-1.375 5.5625 -1.375 5.5625 -4 7 C-4.66 6.67 -5.32 6.34 -6 6 C-4 4 -2 2 0 0 Z " fill="#3B4232" transform="translate(85,70)"/>
<path d="M0 0 C1.32 0 2.64 0 4 0 C4 1.32 4 2.64 4 4 C2.35 4 0.7 4 -1 4 C-0.67 2.68 -0.34 1.36 0 0 Z " fill="#A9BEBF" transform="translate(74,39)"/>
<path d="M0 0 C2.9375 1.3125 2.9375 1.3125 6 3 C6.33 3.99 6.66 4.98 7 6 C4.0625 5.25 4.0625 5.25 1 4 C0.125 1.875 0.125 1.875 0 0 Z " fill="#8A8D94" transform="translate(69,6)"/>
<path d="M0 0 C0.99 0.33 1.98 0.66 3 1 C3 1.66 3 2.32 3 3 C2.34 3 1.68 3 1 3 C0.67 4.32 0.34 5.64 0 7 C-0.99 7 -1.98 7 -3 7 C-3 6.34 -3 5.68 -3 5 C-2.34 4.67 -1.68 4.34 -1 4 C-0.34786708 1.97536745 -0.34786708 1.97536745 0 0 Z " fill="#BFD1C8" transform="translate(15,46)"/>
<path d="M0 0 C0.33 1.32 0.66 2.64 1 4 C-0.65 4.33 -2.3 4.66 -4 5 C-2.25 1.125 -2.25 1.125 0 0 Z " fill="#F0F3ED" transform="translate(86,39)"/>
</svg>
